# xmcd
#
# Track frame offsets:
#	150
#	10831
#	24004
#	35397
#	50469
#	64656
#	79366
#	89383
#	101100
#	113711
#	126287
#	134975
#	150034
#	160281
#
# Disc length: 2341 seconds
#
# Revision: 1
# Processed by: cddbd v1.5.2PL0 Copyright (c) Steve Scherf et al.
# Submitted via: audiograbber 1.83.01
#
DISCID=ad09230e
DTITLE=Johnny Johnson - Angels Don't Lie
DYEAR=2008
DGENRE=Country
TTITLE0=Tomorrow Never Comes 
TTITLE1=Big City 
TTITLE2=Angels Don't Lie  
TTITLE3=Four Strong Winds 
TTITLE4=Snap Your Fingers 
TTITLE5=Winter's Coming On Again 
TTITLE6=Adios Amigos 
TTITLE7=Blame It On Texas 
TTITLE8=That's How I Got To Memphis 
TTITLE9=Face To The Wall 
TTITLE10=Blue Boy 
TTITLE11=Ole Country 
TTITLE12=Hang Over Heart  
TTITLE13=Women Make A Fool Out of Me 
EXTD=
EXTT0=
EXTT1=
EXTT2=
EXTT3=
EXTT4=
EXTT5=
EXTT6=
EXTT7=
EXTT8=
EXTT9=
EXTT10=
EXTT11=
EXTT12=
EXTT13=
PLAYORDER=
